<svg width="21" height="21" viewBox="0 0 21 21" fill="none" xmlns="http://www.w3.org/2000/svg">
<g clip-path="url(#clip0_580_4032)">
<path d="M10.4997 7.16665C11.4163 7.16665 12.1663 6.41665 12.1663 5.49998C12.1663 4.58331 11.4163 3.83331 10.4997 3.83331C9.58301 3.83331 8.83301 4.58331 8.83301 5.49998C8.83301 6.41665 9.58301 7.16665 10.4997 7.16665ZM10.4997 8.83331C9.58301 8.83331 8.83301 9.58331 8.83301 10.5C8.83301 11.4166 9.58301 12.1666 10.4997 12.1666C11.4163 12.1666 12.1663 11.4166 12.1663 10.5C12.1663 9.58331 11.4163 8.83331 10.4997 8.83331ZM10.4997 13.8333C9.58301 13.8333 8.83301 14.5833 8.83301 15.5C8.83301 16.4166 9.58301 17.1666 10.4997 17.1666C11.4163 17.1666 12.1663 16.4166 12.1663 15.5C12.1663 14.5833 11.4163 13.8333 10.4997 13.8333Z" fill="#A0AEC0"/>
</g>
<defs>
<clipPath id="clip0_580_4032">
<rect width="20" height="20" fill="white" transform="translate(0.5 0.5)"/>
</clipPath>
</defs>
</svg>
